<?xml version="1.0" encoding="UTF-8"?>
<svg version="1.1" xmlns="http://www.w3.org/2000/svg" width="1024" height="1024">
<path d="M0 0 C1.80695235 5.42085706 1.45131948 11.25806421 1.625 16.9375 C1.64679321 17.63994843 1.66858643 18.34239685 1.69104004 19.06613159 C2.74414437 54.89231799 0.87686911 90.77112669 -6 126 C-6.19932129 127.03447266 -6.39864258 128.06894531 -6.60400391 129.13476562 C-19.6452513 195.43530278 -49.83881339 255.80603148 -95 306 C-95.55655273 306.6197168 -96.11310547 307.23943359 -96.68652344 307.87792969 C-108.17920532 320.60314105 -120.35470853 332.58241912 -134 343 C-135.2532501 343.98224933 -136.50579337 344.96540085 -137.7578125 345.94921875 C-157.78402849 361.59234729 -179.12808955 375.06017395 -202.04931641 386.05712891 C-203.98402401 386.99227794 -205.90430327 387.95287493 -207.82421875 388.91796875 C-274.72775959 422.05415643 -352.46142434 430.84439973 -426 423 C-423.25691385 420.11943221 -420.43303664 418.42969976 -416.9375 416.5 C-372.06373089 391.35148563 -328.49818862 361.28220812 -288.921875 328.421875 C-286.65256899 326.54089943 -284.37126136 324.67968505 -282.078125 322.828125 C-273.97434897 316.25787121 -266.139665 309.53098609 -258.64550781 302.2668457 C-254.20243751 298 -254.20243751 298 -252 298 C-252 297.34 -252 296.68 -252 296 C-250.53344727 294.55249023 -250.53344727 294.55249023 -248.50390625 292.87109375 C-244.10434314 289.12812404 -240.00851552 285.15720718 -235.9375 281.0625 C-235.26912109 280.39798828 -234.60074219 279.73347656 -233.91210938 279.04882812 C-229.96046028 275.08949846 -226.19690691 271.01945102 -222.54321289 266.78393555 C-220.65788436 264.60451843 -218.70514783 262.49179391 -216.75 260.375 C-211.16425334 254.17387448 -206.05709579 247.63351461 -201 241 C-200.53271484 240.38962891 -200.06542969 239.77925781 -199.58398438 239.15039062 C-194.32624579 232.24915423 -189.36590343 225.2400432 -184.875 217.8125 C-184.49649902 217.18867432 -184.11799805 216.56484863 -183.72802734 215.92211914 C-182.00925146 213.00772529 -180.55084876 210.36351592 -180 207 C-180.6290625 207.56847656 -181.258125 208.13695312 -181.90625 208.72265625 C-190.58917341 216.55559468 -199.40129964 224.22172223 -208.2890625 231.8203125 C-210.7082138 233.88970698 -213.11938733 235.96777307 -215.5234375 238.0546875 C-222.43467436 244.04203479 -229.47553726 249.80308014 -236.6953125 255.4140625 C-239.69282155 257.74738028 -242.6337956 260.14313549 -245.5625 262.5625 C-251.59502684 267.52473982 -257.77978361 272.27745563 -264 277 C-265.41539062 278.07701172 -265.41539062 278.07701172 -266.859375 279.17578125 C-274.26100285 284.76789511 -281.77419393 290.20051669 -289.3046875 295.6171875 C-292.33842129 297.79952262 -295.36452026 299.99167404 -298.3828125 302.1953125 C-315.4763008 314.65779628 -332.95989308 326.46694107 -350.85546875 337.74609375 C-354.64615772 340.13555799 -358.40857764 342.5626904 -362.15454102 345.02148438 C-389.19610259 362.73871614 -417.3192922 378.54788456 -446 393.4375 C-446.73117035 393.8190625 -447.4623407 394.200625 -448.21566772 394.59375 C-450.28620408 395.67212205 -452.36099295 396.74177338 -454.4375 397.80859375 C-455.05808792 398.13278793 -455.67867584 398.45698212 -456.31806946 398.79100037 C-459.10181802 400.20882884 -460.82585175 401 -464 401 C-464.48495085 398.08419491 -464.96301802 395.16751246 -465.4375 392.25 C-465.57220703 391.44433594 -465.70691406 390.63867188 -465.84570312 389.80859375 C-467.5117632 379.48714841 -468.15670322 369.1819165 -468.203125 358.734375 C-468.21167511 357.18052094 -468.21167511 357.18052094 -468.22039795 355.59527588 C-468.22977532 353.4137878 -468.23635269 351.23228603 -468.24023438 349.05078125 C-468.24985441 345.79921021 -468.28091364 342.54829616 -468.3125 339.296875 C-468.41115252 319.93345107 -466.50178909 300.91913399 -462.3125 282 C-461.92795654 280.25529419 -461.92795654 280.25529419 -461.53564453 278.4753418 C-455.67340722 252.8450544 -445.88285364 227.8006245 -431 206 C-430.56751953 205.35691895 -430.13503906 204.71383789 -429.68945312 204.05126953 C-423.89555513 195.46573002 -417.82694914 187.28059577 -410.92089844 179.55297852 C-408.21542407 176.51511465 -406.0805115 173.48131043 -404 170 C-402.31640625 168.33984375 -402.31640625 168.33984375 -400.5625 166.9375 C-398.63613806 165.38175803 -396.83956092 163.83824584 -395.09375 162.078125 C-391.92324174 158.93127725 -388.43224757 156.21245342 -384.9609375 153.40625 C-383.13824029 151.92500794 -381.32791424 150.4281937 -379.5390625 148.90625 C-364.75620182 136.40843719 -348.43008824 126.06575598 -331.63916016 116.50537109 C-329.19131058 115.10912313 -326.75733764 113.69122788 -324.32421875 112.26953125 C-299.51029847 97.98639665 -272.6436449 87.32505697 -246 77 C-244.16000971 76.27771693 -242.32015376 75.55509153 -240.48046875 74.83203125 C-197.55514982 58.08750068 -153.18581715 44.93433862 -109 32 C-108.05597572 31.72365093 -108.05597572 31.72365093 -107.09288025 31.44171906 C-93.85121894 27.56574956 -80.60874906 23.69252987 -67.36157227 19.83544922 C-54.80600646 16.17841078 -42.25638763 12.50227412 -29.72703743 8.75625038 C-27.85881807 8.19780032 -25.99014055 7.64088369 -24.1214447 7.08403015 C-17.47919172 5.09142101 -10.89100146 2.99144951 -4.3356781 0.72819519 C-2 0 -2 0 0 0 Z " fill="#37861D" transform="translate(748,294)"/>
<path d="M0 0 C0.66 0 1.32 0 2 0 C2.77739439 17.08504858 3.13216954 34.08940972 2.625 51.1875 C2.59286911 52.31073669 2.59286911 52.31073669 2.56008911 53.45666504 C2.28773722 62.65919898 1.80135664 71.82615671 1 81 C0.67 81 0.34 81 0 81 C-1.35421424 64.85957381 -0.92684745 48.73209839 -0.60510254 32.55963135 C-0.53331444 28.87838273 -0.46916814 25.19700085 -0.40429688 21.515625 C-0.27682978 14.34360228 -0.14116438 7.17176763 0 0 Z " fill="#38841F" transform="translate(747,297)"/>
<path d="M0 0 C0 0.33 0 0.66 0 1 C6.60196104 1.02537644 13.20390948 1.04287804 19.8059082 1.05493164 C22.05135569 1.05995719 24.29679992 1.06677865 26.54223633 1.07543945 C29.77165534 1.08758281 33.00103105 1.09324614 36.23046875 1.09765625 C37.73386055 1.10539818 37.73386055 1.10539818 39.2676239 1.11329651 C40.20822159 1.11337204 41.14881927 1.11344757 42.11791992 1.11352539 C42.94176682 1.115746 43.76561371 1.11796661 44.61442566 1.12025452 C47.15750378 0.99206039 49.50864774 0.50894637 52 0 C53.94128253 0.08121425 55.88084231 0.22804314 57.8125 0.4375 C58.78832031 0.53933594 59.76414062 0.64117188 60.76953125 0.74609375 C61.50558594 0.82988281 62.24164063 0.91367187 63 1 C63 1.33 63 1.66 63 2 C53.59524073 2.89105957 44.18981016 3.38724611 34.75 3.6875 C34.00285736 3.71190155 33.25571472 3.7363031 32.4859314 3.76144409 C16.24169012 4.25748924 0.18561364 3.35529839 -16 2 C-16 1.67 -16 1.34 -16 1 C-14.27111445 0.83044205 -12.54187557 0.66448486 -10.8125 0.5 C-9.84957031 0.4071875 -8.88664062 0.314375 -7.89453125 0.21875 C-5.24812333 0.01875156 -2.65239135 -0.03879183 0 0 Z " fill="#4E9437" transform="translate(348,716)"/>
<path d="M0 0 C-18.54917861 8.92194333 -18.54917861 8.92194333 -26 7 C-21.92780764 4.28520509 -17.66190075 3.2077872 -13 1.8125 C-12.08476563 1.52697266 -11.16953125 1.24144531 -10.2265625 0.94726562 C-9.34742188 0.68236328 -8.46828125 0.41746094 -7.5625 0.14453125 C-6.75941406 -0.09934326 -5.95632813 -0.34321777 -5.12890625 -0.59448242 C-3 -1 -3 -1 0 0 Z " fill="#4B9232" transform="translate(628,331)"/>
<path d="M0 0 C0.80859375 1.640625 0.80859375 1.640625 1 4 C-0.58570661 6.12217932 -2.09290258 7.8833556 -3.9375 9.75 C-4.41896484 10.25660156 -4.90042969 10.76320313 -5.39648438 11.28515625 C-6.58653954 12.53412504 -7.79186613 13.7685103 -9 15 C-9.99 14.67 -10.98 14.34 -12 14 C-11.21753906 13.15695312 -10.43507813 12.31390625 -9.62890625 11.4453125 C-8.60665175 10.33865166 -7.58452284 9.23187479 -6.5625 8.125 C-6.04623047 7.56941406 -5.52996094 7.01382813 -4.99804688 6.44140625 C-2.17895264 3.45250685 -2.17895264 3.45250685 0 0 Z " fill="#408A25" transform="translate(543,540)"/>
<path d="M0 0 C0.66 0.33 1.32 0.66 2 1 C2 1.66 2 2.32 2 3 C1.21625 3.0825 0.4325 3.165 -0.375 3.25 C-1.24125 3.4975 -2.1075 3.745 -3 4 C-3.70151152 5.3153341 -4.36525925 6.65117592 -5 8 C-7.375 9.8125 -7.375 9.8125 -10 11 C-11.32 10.67 -12.64 10.34 -14 10 C-9.38 6.7 -4.76 3.4 0 0 Z " fill="#428D29" transform="translate(399,667)"/>
<path d="M0 0 C1.28132813 0.10183594 2.56265625 0.20367188 3.8828125 0.30859375 C4.87023437 0.39238281 5.85765625 0.47617187 6.875 0.5625 C6.875 0.8925 6.875 1.2225 6.875 1.5625 C-2.16221311 2.50492818 -11.05051747 2.67407151 -20.125 2.5625 C-20.125 2.2325 -20.125 1.9025 -20.125 1.5625 C-19.35414063 1.50191406 -18.58328125 1.44132813 -17.7890625 1.37890625 C-16.28472656 1.25322266 -16.28472656 1.25322266 -14.75 1.125 C-13.75226563 1.04378906 -12.75453125 0.96257813 -11.7265625 0.87890625 C-2.69021739 -0.2201087 -2.69021739 -0.2201087 0 0 Z " fill="#599B43" transform="translate(404.125,716.4375)"/>
<path d="M0 0 C0.33 0 0.66 0 1 0 C1.12852505 8.72542301 0.79645684 17.31008699 0 26 C-0.33 26 -0.66 26 -1 26 C-1.33 20.06 -1.66 14.12 -2 8 C-1.67 8 -1.34 8 -1 8 C-0.67 5.36 -0.34 2.72 0 0 Z " fill="#569940" transform="translate(748,352)"/>
<path d="M0 0 C0.33 0 0.66 0 1 0 C1.22786458 1.953125 1.45572917 3.90625 1.68359375 5.859375 C1.94407499 7.97731561 1.94407499 7.97731561 2.5625 9.875 C3.15639681 12.75964166 2.84857857 15.32564124 2.5625 18.25 C2.40974609 19.86648438 2.40974609 19.86648438 2.25390625 21.515625 C2.17011719 22.33546875 2.08632813 23.1553125 2 24 C1.67 24 1.34 24 1 24 C0.20318916 15.97497656 -0.12867289 8.06350113 0 0 Z " fill="#62A04D" transform="translate(280,652)"/>
<path d="M0 0 C0.99 0.33 1.98 0.66 3 1 C3.99 0.67 4.98 0.34 6 0 C6.66 0.66 7.32 1.32 8 2 C2.375 5 2.375 5 -1 5 C-0.67 3.35 -0.34 1.7 0 0 Z " fill="#478E2C" transform="translate(285,690)"/>
<path d="M0 0 C-1.35513665 4.06540996 -3.30796918 4.97300269 -7 7 C-9.19921875 6.609375 -9.19921875 6.609375 -11 6 C-9.54550599 4.9944239 -8.08627557 3.99569565 -6.625 3 C-5.40683594 2.1646875 -5.40683594 2.1646875 -4.1640625 1.3125 C-2 0 -2 0 0 0 Z " fill="#458D2C" transform="translate(404,419)"/>
<path d="M0 0 C-1.11666174 3.34998521 -1.74694925 3.79340222 -4.5625 5.6875 C-5.20316406 6.12449219 -5.84382813 6.56148437 -6.50390625 7.01171875 C-6.99761719 7.33785156 -7.49132812 7.66398438 -8 8 C-8.66 7.67 -9.32 7.34 -10 7 C-3.18421053 0 -3.18421053 0 0 0 Z " fill="#408B26" transform="translate(447,596)"/>
<path d="M0 0 C-3.44450737 2.29633824 -5.93812283 2.54016485 -10 3 C-10.33 2.34 -10.66 1.68 -11 1 C-3.57142857 -1.42857143 -3.57142857 -1.42857143 0 0 Z " fill="#448E2B" transform="translate(613,336)"/>
<path d="M0 0 C0.763125 0.061875 1.52625 0.12375 2.3125 0.1875 C2.6425 1.1775 2.9725 2.1675 3.3125 3.1875 C0.3425 3.1875 -2.6275 3.1875 -5.6875 3.1875 C-2.6875 0.1875 -2.6875 0.1875 0 0 Z " fill="#408526" transform="translate(327.6875,713.8125)"/>
<path d="M0 0 C0.66 0 1.32 0 2 0 C0.66511872 3.59391114 -0.96022723 6.75490696 -3 10 C-3.75 8.375 -3.75 8.375 -4 6 C-2.1875 2.75 -2.1875 2.75 0 0 Z " fill="#438A2C" transform="translate(695,539)"/>
<path d="M0 0 C-0.66 0 -1.32 0 -2 0 C-2 0.66 -2 1.32 -2 2 C-4.76264289 2.59732819 -7.16032769 3 -10 3 C-10.33 3.66 -10.66 4.32 -11 5 C-11.66 4.34 -12.32 3.68 -13 3 C-11.40084119 2.30093058 -9.79544955 1.61610532 -8.1875 0.9375 C-7.29417969 0.55464844 -6.40085937 0.17179687 -5.48046875 -0.22265625 C-3 -1 -3 -1 0 0 Z " fill="#55983C" transform="translate(526,364)"/>
<path d="M0 0 C0.66 0.33 1.32 0.66 2 1 C2 1.66 2 2.32 2 3 C-0.25 4.6875 -0.25 4.6875 -3 6 C-4.32 5.67 -5.64 5.34 -7 5 C-4.69 3.35 -2.38 1.7 0 0 Z " fill="#448D2B" transform="translate(375,683)"/>
<path d="M0 0 C0.6875 1.6875 0.6875 1.6875 1 4 C-0.25 6.6875 -0.25 6.6875 -2 9 C-2.99 9.33 -3.98 9.66 -5 10 C-3.66511872 6.40608886 -2.03977277 3.24509304 0 0 Z " fill="#438C2A" transform="translate(566,507)"/>
<path d="M0 0 C-2.97 1.65 -5.94 3.3 -9 5 C-9.33 4.34 -9.66 3.68 -10 3 C-4.5 -1.125 -4.5 -1.125 0 0 Z " fill="#3F8824" transform="translate(403,628)"/>
<path d="M0 0 C-2.93828597 2.50298434 -5.17902761 3.46930939 -9 4 C-9 3.34 -9 2.68 -9 2 C-5.86501708 0.14223235 -3.62528568 -0.20140476 0 0 Z " fill="#418927" transform="translate(540,682)"/>
<path d="M0 0 C0.6875 1.6875 0.6875 1.6875 1 4 C-0.3125 6.75 -0.3125 6.75 -2 9 C-2.66 9 -3.32 9 -4 9 C-2.94124926 5.59687262 -1.99097846 2.98646769 0 0 Z " fill="#458C2D" transform="translate(310,512)"/>
<path d="M0 0 C0.6875 1.6875 0.6875 1.6875 1 4 C-0.3125 6.75 -0.3125 6.75 -2 9 C-2.66 9 -3.32 9 -4 9 C-2.94124926 5.59687262 -1.99097846 2.98646769 0 0 Z " fill="#458D2B" transform="translate(315,503)"/>
<path d="M0 0 C0 0.33 0 0.66 0 1 C-3.3 1.33 -6.6 1.66 -10 2 C-10 1.34 -10 0.68 -10 0 C-6.42355152 -1.2380014 -3.66305234 -0.74926071 0 0 Z " fill="#458F2D" transform="translate(461,709)"/>
<path d="M0 0 C0 0.66 0 1.32 0 2 C-2.90600261 3.25664978 -4.79604584 4 -8 4 C-8 3.34 -8 2.68 -8 2 C-5.09399739 0.74335022 -3.20395416 0 0 0 Z " fill="#408928" transform="translate(519,690)"/>
<path d="M0 0 C-1.13719419 3.41158256 -2.04342944 4.11854601 -5 6 C-5.66 6 -6.32 6 -7 6 C-5.52522876 2.59668175 -4.14385429 0 0 0 Z " fill="#428B28" transform="translate(465,583)"/>
<path d="M0 0 C2 1 2 1 2 1 Z " fill="#529134" transform="translate(376,680)"/>
<path d="" fill="#4D563F" transform="translate(0,0)"/>
<path d="" fill="#4A523B" transform="translate(0,0)"/>
<path d="" fill="#50593F" transform="translate(0,0)"/>
<path d="" fill="#4F5940" transform="translate(0,0)"/>
<path d="" fill="#505941" transform="translate(0,0)"/>
<path d="" fill="#4F5440" transform="translate(0,0)"/>
<path d="" fill="#566542" transform="translate(0,0)"/>
<path d="" fill="#58973A" transform="translate(0,0)"/>
<path d="" fill="#599738" transform="translate(0,0)"/>
<path d="" fill="#529535" transform="translate(0,0)"/>
<path d="" fill="#529634" transform="translate(0,0)"/>
<path d="" fill="#5A963D" transform="translate(0,0)"/>
<path d="" fill="#56953A" transform="translate(0,0)"/>
<path d="" fill="#559836" transform="translate(0,0)"/>
<path d="" fill="#569338" transform="translate(0,0)"/>
<path d="" fill="#55973B" transform="translate(0,0)"/>
<path d="" fill="#559538" transform="translate(0,0)"/>
<path d="" fill="#529634" transform="translate(0,0)"/>
<path d="" fill="#4F9532" transform="translate(0,0)"/>
<path d="" fill="#549535" transform="translate(0,0)"/>
<path d="" fill="#549439" transform="translate(0,0)"/>
<path d="" fill="#5A973D" transform="translate(0,0)"/>
<path d="" fill="#549837" transform="translate(0,0)"/>
<path d="" fill="#539B33" transform="translate(0,0)"/>
<path d="" fill="#529531" transform="translate(0,0)"/>
<path d="" fill="#529933" transform="translate(0,0)"/>
<path d="" fill="#55913F" transform="translate(0,0)"/>
<path d="" fill="#579539" transform="translate(0,0)"/>
<path d="" fill="#529239" transform="translate(0,0)"/>
<path d="" fill="#559538" transform="translate(0,0)"/>
<path d="" fill="#509332" transform="translate(0,0)"/>
<path d="" fill="#529533" transform="translate(0,0)"/>
<path d="" fill="#519433" transform="translate(0,0)"/>
<path d="" fill="#5C9C3E" transform="translate(0,0)"/>
<path d="" fill="#53933C" transform="translate(0,0)"/>
<path d="" fill="#569939" transform="translate(0,0)"/>
<path d="" fill="#55973A" transform="translate(0,0)"/>
<path d="" fill="#589540" transform="translate(0,0)"/>
<path d="" fill="#57953C" transform="translate(0,0)"/>
<path d="" fill="#58993A" transform="translate(0,0)"/>
<path d="" fill="#5B9742" transform="translate(0,0)"/>
<path d="" fill="#59983D" transform="translate(0,0)"/>
<path d="" fill="#58993C" transform="translate(0,0)"/>
<path d="" fill="#56973A" transform="translate(0,0)"/>
<path d="" fill="#599A38" transform="translate(0,0)"/>
<path d="" fill="#57933C" transform="translate(0,0)"/>
<path d="" fill="#589838" transform="translate(0,0)"/>
<path d="" fill="#579939" transform="translate(0,0)"/>
<path d="" fill="#58993B" transform="translate(0,0)"/>
<path d="" fill="#55963A" transform="translate(0,0)"/>
<path d="" fill="#58943A" transform="translate(0,0)"/>
<path d="" fill="#567544" transform="translate(0,0)"/>
<path d="" fill="#5A7248" transform="translate(0,0)"/>
<path d="" fill="#57983A" transform="translate(0,0)"/>
<path d="" fill="#5C9A3B" transform="translate(0,0)"/>
<path d="" fill="#585F49" transform="translate(0,0)"/>
<path d="" fill="#575F4A" transform="translate(0,0)"/>
<path d="" fill="#4F5841" transform="translate(0,0)"/>
<path d="" fill="#555C47" transform="translate(0,0)"/>
<path d="" fill="#565C47" transform="translate(0,0)"/>
</svg>
