<?xml version="1.0" encoding="utf-8"?><!-- Uploaded to: SVG Repo, www.svgrepo.com, Generator: SVG Repo Mixer Tools -->
<svg width="800px" height="800px" viewBox="0 0 24 24" id="rain-alt" xmlns="http://www.w3.org/2000/svg" class="icon multi-color"><title style="stroke-width: 2;">rain alt</title><path id="tertiary-fill" d="M20.7,10.5A4,4,0,0,1,17,13H6a3,3,0,0,1-2.6-1.5,3,3,0,0,1,3.68-1.29,5,5,0,0,1,9-2.09A4.08,4.08,0,0,1,17,8,4,4,0,0,1,20.7,10.5Z" style="fill: #b7b7b7; stroke-width: 2;"></path><path id="primary-stroke" d="M21,9a3.76,3.76,0,0,1-.3,1.5A4,4,0,0,1,17,13H6A3,3,0,1,1,7.08,7.21a5,5,0,0,1,9-2.09A4.08,4.08,0,0,1,17,5,4,4,0,0,1,21,9Z" style="fill: none; stroke: rgb(0, 0, 0); stroke-linecap: round; stroke-linejoin: round; stroke-width: 2;"></path><path id="secondary-stroke" d="M6,17,5,19m5-2L8,21m6-4-1,2m5-2-2,4" style="fill: none; stroke: rgb(44, 169, 188); stroke-linecap: round; stroke-linejoin: round; stroke-width: 2;"></path></svg>