<?xml version="1.0" encoding="iso-8859-1"?>
<!-- Uploaded to: SVG Repo, www.svgrepo.com, Generator: SVG Repo Mixer Tools -->
<svg height="800px" width="800px" version="1.1" id="Layer_1" xmlns="http://www.w3.org/2000/svg" xmlns:xlink="http://www.w3.org/1999/xlink" 
	 viewBox="0 0 503.467 503.467" xml:space="preserve">
<g transform="translate(5 1)">
	<path style="fill:#AE938D;" d="M374.733,156.867v332.8c0,4.267-3.413,8.533-8.533,8.533h-17.067c-5.12,0-8.533-4.267-8.533-8.533
		v-332.8H374.733z"/>
	<path style="fill:#F2EDDA;" d="M118.733,498.2C50.467,481.133,33.4,447,33.4,395.8v-68.267c0-9.387,7.68-17.067,17.067-17.067h51.2
		H135.8H187c9.387,0,17.067,7.68,17.067,17.067V395.8C204.067,447,169.933,481.133,118.733,498.2"/>
	<path style="fill:#AE938D;" d="M135.8,11.8v298.667h-34.133V11.8c0-4.267,4.267-8.533,8.533-8.533h17.067
		C131.533,3.267,135.8,7.533,135.8,11.8"/>
	<path style="fill:#F2EDDA;" d="M408.867,88.6h51.2c0,42.667-25.6,68.267-68.267,68.267h-17.067H340.6h-17.067
		c-42.667,0-68.267-25.6-68.267-68.267h51.2h51.2H408.867z"/>
</g>
<path style="fill:#51565F;" d="M371.2,503.467h-17.067c-6.827,0-12.8-5.973-12.8-12.8V192c0-2.56,1.707-4.267,4.267-4.267
	s4.267,1.707,4.267,4.267v298.667c0,2.56,1.707,4.267,4.267,4.267H371.2c2.56,0,4.267-1.707,4.267-4.267V162.133h-46.933
	C284.16,162.133,256,133.973,256,89.6V4.267C256,1.707,257.707,0,260.267,0s4.267,1.707,4.267,4.267V89.6c0,40.107,23.893,64,64,64
	H396.8c40.107,0,64-23.893,64-64V4.267c0-2.56,1.707-4.267,4.267-4.267s4.267,1.707,4.267,4.267V89.6
	c0,44.373-28.16,72.533-72.533,72.533H384v328.533C384,497.493,378.027,503.467,371.2,503.467z M123.733,503.467h-0.853
	c-63.147-15.36-88.747-46.933-88.747-106.667v-68.267c0-11.947,9.387-21.333,21.333-21.333h81.067V12.8
	c0-2.56-1.707-4.267-4.267-4.267H115.2c-2.56,0-4.267,1.707-4.267,4.267v264.533c0,2.56-1.707,4.267-4.267,4.267
	s-4.267-1.707-4.267-4.267V12.8c0-6.827,5.973-12.8,12.8-12.8h17.067c6.827,0,12.8,5.973,12.8,12.8v294.4H192
	c11.947,0,21.333,9.387,21.333,21.333V396.8c0,49.493-31.573,87.04-87.893,106.667C124.587,503.467,124.587,503.467,123.733,503.467
	z M55.467,315.733c-6.827,0-12.8,5.973-12.8,12.8V396.8c0,45.227,13.653,79.36,76.8,97.28V379.733c0-2.56,1.707-4.267,4.267-4.267
	c2.56,0,4.267,1.707,4.267,4.267v113.493c49.493-17.92,76.8-52.053,76.8-96.427v-68.267c0-6.827-5.973-12.8-12.8-12.8H55.467z
	 M362.667,128c-2.56,0-4.267-1.707-4.267-4.267V4.267c0-2.56,1.707-4.267,4.267-4.267s4.267,1.707,4.267,4.267v119.467
	C366.933,126.293,365.227,128,362.667,128z M413.867,119.467c-2.56,0-4.267-1.707-4.267-4.267V4.267c0-2.56,1.707-4.267,4.267-4.267
	s4.267,1.707,4.267,4.267V115.2C418.133,117.76,416.427,119.467,413.867,119.467z M311.467,119.467c-2.56,0-4.267-1.707-4.267-4.267
	V4.267c0-2.56,1.707-4.267,4.267-4.267s4.267,1.707,4.267,4.267V115.2C315.733,117.76,314.027,119.467,311.467,119.467z"/>
</svg>