<?xml version="1.0" encoding="iso-8859-1"?>
<!-- Uploaded to: SVG Repo, www.svgrepo.com, Generator: SVG Repo Mixer Tools -->
<!DOCTYPE svg PUBLIC "-//W3C//DTD SVG 1.1//EN" "http://www.w3.org/Graphics/SVG/1.1/DTD/svg11.dtd">
<svg version="1.1" id="Capa_1" xmlns="http://www.w3.org/2000/svg" xmlns:xlink="http://www.w3.org/1999/xlink" 
	 viewBox="0 0 297.5 297.5" xml:space="preserve">
<g>
	<g id="XMLID_38_">
		<g>
			<rect x="219.955" y="49.91" style="fill:#9EA584;" width="12.18" height="43.09"/>
			<path style="fill:#9EA584;" d="M226.045,235.41c11.88,0,21.55,9.67,21.55,21.55c0,11.89-9.67,21.55-21.55,21.55
				c-11.88,0-21.55-9.66-21.55-21.55C204.495,245.08,214.165,235.41,226.045,235.41z"/>
			<path style="fill:#9EA584;" d="M86.915,173.58c28.93,0,52.46,23.53,52.46,52.46c0,28.94-23.53,52.47-52.46,52.47
				s-52.47-23.53-52.47-52.47C34.445,197.11,57.985,173.58,86.915,173.58z M111.745,226.04c0-13.69-11.14-24.82-24.83-24.82
				s-24.83,11.13-24.83,24.82c0,13.7,11.14,24.83,24.83,24.83S111.745,239.74,111.745,226.04z"/>
			<path style="fill:#D5BA2F;" d="M261.295,115.19c1.65,2.19,2.17,4.96,1.41,7.6l-4.75,16.64c-0.33-0.03-0.66-0.05-0.99-0.05h-46.38
				c-5.17,0-9.37,4.2-9.37,9.37s4.2,9.37,9.37,9.37h42.03l-3.48,12.18h-38.55c-5.17,0-9.37,4.19-9.37,9.37
				c0,5.17,4.2,9.37,9.37,9.37h33.19l-3.48,12.18h-86.65c-10.1-27.06-36.2-46.38-66.73-46.38c-5.39,0-10.64,0.62-15.69,1.76v-36.2
				c0-4.77,3.89-8.66,8.66-8.66h174.49C257.125,111.74,259.645,113,261.295,115.19z"/>
			<path d="M276.255,103.9c5.22,6.93,6.85,15.69,4.47,24.03l-24.35,85.23c-1.15,4.02-4.83,6.8-9.01,6.8h-5.42
				c14.33,6.18,24.39,20.44,24.39,37c0,22.22-18.08,40.29-40.29,40.29c-22.22,0-40.29-18.07-40.29-40.29
				c0-16.56,10.06-30.82,24.38-37h-52.3c0.18,2,0.28,4.03,0.28,6.08c0,39.27-31.94,71.21-71.2,71.21
				c-39.27,0-71.21-31.94-71.21-71.21c0-26.78,14.87-50.14,36.78-62.3V120.4c0-15.1,12.3-27.4,27.4-27.4h17.47l28.14-42.2
				c2.87-4.31,8.69-5.47,12.99-2.6c4.31,2.87,5.47,8.69,2.6,12.99l-6.99,10.49l24.7,21.32h42.42V40.54c0-5.18,4.2-9.37,9.37-9.37
				h6.09v-6.09c0-13.69,11.14-24.83,24.83-24.83c5.17,0,9.37,4.2,9.37,9.37s-4.2,9.37-9.37,9.37c-3.36,0-6.09,2.73-6.09,6.09v6.09
				h6.09c5.17,0,9.37,4.19,9.37,9.37V93h3.5C263.055,93,271.025,96.98,276.255,103.9z M262.705,122.79c0.76-2.64,0.24-5.41-1.41-7.6
				c-1.65-2.19-4.17-3.45-6.92-3.45H79.885c-4.77,0-8.66,3.89-8.66,8.66v36.2c5.05-1.14,10.3-1.76,15.69-1.76
				c30.53,0,56.63,19.32,66.73,46.38h86.65l3.48-12.18h-33.19c-5.17,0-9.37-4.2-9.37-9.37c0-5.18,4.2-9.37,9.37-9.37h38.55
				l3.48-12.18h-42.03c-5.17,0-9.37-4.2-9.37-9.37s4.2-9.37,9.37-9.37h46.38c0.33,0,0.66,0.02,0.99,0.05L262.705,122.79z
				 M247.595,256.96c0-11.88-9.67-21.55-21.55-21.55c-11.88,0-21.55,9.67-21.55,21.55c0,11.89,9.67,21.55,21.55,21.55
				C237.925,278.51,247.595,268.85,247.595,256.96z M232.135,93V49.91h-12.18V93H232.135z M119.875,93h10.25l-6.5-5.61L119.875,93z
				 M139.375,226.04c0-28.93-23.53-52.46-52.46-52.46s-52.47,23.53-52.47,52.46c0,28.94,23.54,52.47,52.47,52.47
				S139.375,254.98,139.375,226.04z"/>
			<path d="M86.915,201.22c13.69,0,24.83,11.13,24.83,24.82c0,13.7-11.14,24.83-24.83,24.83s-24.83-11.13-24.83-24.83
				C62.085,212.35,73.225,201.22,86.915,201.22z"/>
		</g>
		<g>
		</g>
	</g>
</g>
</svg>