<?xml version="1.0" encoding="utf-8"?>
<!-- Uploaded to: SVG Repo, www.svgrepo.com, Generator: SVG Repo Mixer Tools -->
<svg width="800px" height="800px" viewBox="0 0 1024 1024" class="icon"  version="1.1" xmlns="http://www.w3.org/2000/svg"><path d="M425.176 123.4h554.432v424.992H425.176z" fill="#E6246B" /><path d="M893.832 809.152c47.384 0 85.784-38.392 85.784-85.784V543.624H425.976V241.288l-234.064-0.768L40.92 492.192V723.36c0 47.392 38.392 85.784 85.752 85.784h767.16z" fill="#F6B246" /><path d="M893.832 809.152c47.384 0 85.784-38.392 85.784-85.784V603.832H40.92V723.36c0 47.392 38.392 85.784 85.752 85.784h767.16z" fill="#ECD4BE" /><path d="M853.728 824.552c0 56.152-45.504 101.592-101.6 101.592-56.152 0-101.592-45.448-101.592-101.592 0-56.096 45.448-101.6 101.592-101.6 56.088 0 101.6 45.512 101.6 101.6zM379.584 824.552c0 56.152-45.48 101.592-101.6 101.592s-101.6-45.448-101.6-101.592c0-56.096 45.48-101.6 101.6-101.6s101.6 45.512 101.6 101.6z" fill="#0093D3" /><path d="M264.192 454.568H62.848l109.128-178.736h92.216z" fill="#E09431" /></svg>